# xmcd
#
# Track frame offsets: 
#        150
#        23775
#        42214
#        61525
#        75478
#        112414
#        126240
#        153257
#        186192
#        208191
#        237678
#        261160
#        288629
#
# Disc length: 4077 seconds
#
# Revision: 0
# Processed by: cddbd v1.5.2PL0 Copyright (c) Steve Scherf et al.
# Submitted via: ExactAudioCopy v0.95b3
#
DISCID=bc0feb0d
DTITLE=Popa Chubby - Deliveries After Dark
DYEAR=2007
DGENRE=Blues
TTITLE0=Let The Music Set You Free
TTITLE1=Sally Likes To Run
TTITLE2=Deliveries After Dark
TTITLE3=Theme From The Godfather
TTITLE4=Grown Man Crying Blues
TTITLE5=You Can't Stop Love
TTITLE6=I'll Piss On Your Grave
TTITLE7=Man Of The Blues
TTITLE8=Money Isn't Everything
TTITLE9=2nd Avenue Shuffle
TTITLE10=You Never Loved Me
TTITLE11=Woman In My Bed (Dub Version)
TTITLE12=Oh Rock And Roll
EXTD=
EXTT0=
EXTT1=
EXTT2=
EXTT3=
EXTT4=
EXTT5=
EXTT6=
EXTT7=
EXTT8=
EXTT9=
EXTT10=
EXTT11=
EXTT12=
PLAYORDER=
